<svg width="25" height="27" viewBox="0 0 25 27" fill="none" xmlns="http://www.w3.org/2000/svg">
<g clip-path="url(#clip0_10_17)">
<path d="M18.7591 22.5C19.9097 22.5 20.8424 21.4926 20.8424 20.25C20.8424 19.0074 19.9097 18 18.7591 18C17.6085 18 16.6758 19.0074 16.6758 20.25C16.6758 21.4926 17.6085 22.5 18.7591 22.5Z" fill="#34A853"/>
<path d="M12.509 18C14.2349 18 15.634 16.489 15.634 14.625C15.634 12.761 14.2349 11.25 12.509 11.25C10.7831 11.25 9.38403 12.761 9.38403 14.625C9.38403 16.489 10.7831 18 12.509 18Z" fill="#4285F4"/>
<path d="M3.125 19.0125C3.125 21.5592 5.03776 23.625 7.39583 23.625H12.5V21.375L7.27865 21.3609C6.13281 21.3609 5.20833 20.2092 5.20833 18.8437V16.3125H3.125V19.0125Z" fill="#EA4335"/>
<path d="M21.8751 10.2375C21.8751 7.69078 19.9623 5.625 17.6042 5.625H15.1042L17.7084 7.875C18.8542 7.875 19.7917 9.04078 19.7917 10.4062V14.625H21.8751V10.2375Z" fill="#FBBC05"/>
<path d="M14.5833 3.375H10.4167L8.85417 5.625H7.39583C5.03776 5.625 3.125 7.69078 3.125 10.2375V12.9375H5.20833V10.4062C5.20833 9.04078 6.14583 7.875 7.29167 7.875H17.7083L14.5833 3.375Z" fill="#4285F4"/>
</g>
<defs>
<clipPath id="clip0_10_17">
<rect width="25" height="27" fill="white"/>
</clipPath>
</defs>
</svg>
